<svg width="30" height="30" viewBox="0 0 30 30" fill="none" xmlns="http://www.w3.org/2000/svg">
<g clip-path="url(#clip0_127_2)">
<path d="M11.25 0.9375C11.25 0.68886 11.3488 0.450403 11.5246 0.274587C11.7004 0.0987721 11.9389 0 12.1875 0L17.8125 0C18.0611 0 18.2996 0.0987721 18.4754 0.274587C18.6512 0.450403 18.75 0.68886 18.75 0.9375C18.75 1.18614 18.6512 1.4246 18.4754 1.60041C18.2996 1.77623 18.0611 1.875 17.8125 1.875H16.875V3.88125C19.4284 4.24983 21.8166 5.36263 23.7412 7.08063C25.6658 8.79863 27.0415 11.0457 27.6964 13.541C28.3513 16.0363 28.2565 18.6693 27.4237 21.111C26.5908 23.5528 25.057 25.695 23.0138 27.27L24.1406 28.3988C24.3167 28.5745 24.4157 28.8131 24.4158 29.0618C24.416 29.3106 24.3174 29.5493 24.1416 29.7253C23.9658 29.9014 23.7273 30.0003 23.4785 30.0005C23.2297 30.0007 22.991 29.902 22.815 29.7262L21.4163 28.3275C19.4568 29.4273 17.247 30.0034 15 30C12.753 30.0034 10.5432 29.4273 8.58375 28.3275L7.185 29.7262C7.09783 29.8133 6.99438 29.8823 6.88054 29.9294C6.7667 29.9764 6.64471 30.0006 6.52152 30.0005C6.39834 30.0004 6.27638 29.9761 6.16261 29.9289C6.04884 29.8816 5.94548 29.8125 5.85844 29.7253C5.7714 29.6381 5.70237 29.5347 5.65531 29.4209C5.60826 29.307 5.58408 29.185 5.58417 29.0618C5.58434 28.8131 5.68334 28.5745 5.85937 28.3988L6.98812 27.27C4.94491 25.6951 3.41105 23.553 2.57813 21.1115C1.74522 18.6699 1.6502 16.037 2.30492 13.5417C2.95965 11.0464 4.3351 8.79938 6.25946 7.08126C8.18382 5.36314 10.5718 4.25012 13.125 3.88125V1.875H12.1875C11.9389 1.875 11.7004 1.77623 11.5246 1.60041C11.3488 1.4246 11.25 1.18614 11.25 0.9375ZM15.9375 10.3125C15.9375 10.0639 15.8387 9.8254 15.6629 9.64959C15.4871 9.47377 15.2486 9.375 15 9.375C14.7514 9.375 14.5129 9.47377 14.3371 9.64959C14.1613 9.8254 14.0625 10.0639 14.0625 10.3125V16.6163L11.3831 21.0787C11.2551 21.2921 11.217 21.5475 11.2773 21.7889C11.3376 22.0303 11.4914 22.2379 11.7047 22.3659C11.918 22.494 12.1735 22.532 12.4149 22.4717C12.6563 22.4114 12.8638 22.2577 12.9919 22.0444L15.8044 17.3569C15.8915 17.2113 15.9376 17.0447 15.9375 16.875V10.3125ZM1.6125 10.1006C1.12736 9.67863 0.73423 9.16133 0.457553 8.58091C0.180876 8.00049 0.0265711 7.36935 0.00423346 6.72675C-0.0181042 6.08414 0.0920033 5.44382 0.327709 4.84558C0.563414 4.24735 0.919677 3.70401 1.37434 3.24934C1.82901 2.79468 2.37235 2.43841 2.97058 2.20271C3.56881 1.967 4.20914 1.8569 4.85175 1.87923C5.49435 1.90157 6.12549 2.05588 6.70591 2.33255C7.28634 2.60923 7.80363 3.00236 8.22563 3.4875C5.37553 4.93452 3.05952 7.25053 1.6125 10.1006ZM21.7744 3.4875C22.1964 3.00236 22.7137 2.60923 23.2941 2.33255C23.8745 2.05588 24.5056 1.90157 25.1483 1.87923C25.7909 1.8569 26.4312 1.967 27.0294 2.20271C27.6277 2.43841 28.171 2.79468 28.6257 3.24934C29.0803 3.70401 29.4366 4.24735 29.6723 4.84558C29.908 5.44382 30.0181 6.08414 29.9958 6.72675C29.9734 7.36935 29.8191 8.00049 29.5424 8.58091C29.2658 9.16133 28.8726 9.67863 28.3875 10.1006C26.9405 7.25053 24.6245 4.93452 21.7744 3.4875Z" fill="#FFD700"/>
</g>
<defs>
<clipPath id="clip0_127_2">
<rect width="30" height="30" fill="white"/>
</clipPath>
</defs>
</svg>
