<svg width="41" height="39" viewBox="0 0 41 39" fill="none" xmlns="http://www.w3.org/2000/svg">
<path fill-rule="evenodd" clip-rule="evenodd" d="M20.761 29.0869C21.0946 29.0869 21.4146 28.9593 21.6505 28.732C21.8863 28.5047 22.0189 28.1964 22.0189 27.875V13.8333L27.4176 19.0374C27.5346 19.1501 27.6734 19.2395 27.8262 19.3005C27.979 19.3614 28.1428 19.3928 28.3082 19.3928C28.4736 19.3928 28.6373 19.3614 28.7902 19.3005C28.943 19.2395 29.0818 19.1501 29.1987 19.0374C29.3157 18.9247 29.4085 18.791 29.4718 18.6437C29.5351 18.4965 29.5676 18.3387 29.5676 18.1793C29.5676 18.02 29.5351 17.8622 29.4718 17.715C29.4085 17.5677 29.3157 17.434 29.1987 17.3213L21.6516 10.0495C21.5347 9.93667 21.3959 9.84713 21.2431 9.78603C21.0903 9.72493 20.9265 9.69348 20.761 9.69348C20.5956 9.69348 20.4317 9.72493 20.2789 9.78603C20.1261 9.84713 19.9873 9.93667 19.8704 10.0495L12.3233 17.3213C12.0871 17.5488 11.9544 17.8575 11.9544 18.1793C11.9544 18.5012 12.0871 18.8098 12.3233 19.0374C12.5595 19.265 12.8798 19.3928 13.2138 19.3928C13.5479 19.3928 13.8682 19.265 14.1044 19.0374L19.5031 13.8333V27.875C19.5031 28.1964 19.6357 28.5047 19.8716 28.732C20.1075 28.9593 20.4274 29.0869 20.761 29.0869Z" fill="#FF8A00"/>
</svg>
