<svg width="41" height="40" viewBox="0 0 41 40" fill="none" xmlns="http://www.w3.org/2000/svg">
<path fill-rule="evenodd" clip-rule="evenodd" d="M20.761 30C21.0946 30 21.4146 29.8683 21.6505 29.6339C21.8863 29.3994 22.0189 29.0815 22.0189 28.75V14.2675L27.4176 19.635C27.5346 19.7512 27.6734 19.8434 27.8262 19.9063C27.979 19.9692 28.1428 20.0016 28.3082 20.0016C28.4736 20.0016 28.6373 19.9692 28.7902 19.9063C28.943 19.8434 29.0818 19.7512 29.1987 19.635C29.3157 19.5188 29.4085 19.3808 29.4718 19.2289C29.5351 19.0771 29.5676 18.9143 29.5676 18.75C29.5676 18.5856 29.5351 18.4229 29.4718 18.271C29.4085 18.1192 29.3157 17.9812 29.1987 17.865L21.6516 10.365C21.5347 10.2486 21.3959 10.1562 21.2431 10.0932C21.0903 10.0302 20.9265 9.99774 20.761 9.99774C20.5956 9.99774 20.4317 10.0302 20.2789 10.0932C20.1261 10.1562 19.9873 10.2486 19.8704 10.365L12.3233 17.865C12.0871 18.0997 11.9544 18.418 11.9544 18.75C11.9544 19.0819 12.0871 19.4003 12.3233 19.635C12.5595 19.8697 12.8798 20.0016 13.2138 20.0016C13.5479 20.0016 13.8682 19.8697 14.1044 19.635L19.5031 14.2675V28.75C19.5031 29.0815 19.6357 29.3994 19.8716 29.6339C20.1075 29.8683 20.4274 30 20.761 30Z" fill="white"/>
</svg>
