<svg width="30" height="30" viewBox="0 0 30 30" fill="none" xmlns="http://www.w3.org/2000/svg">
<g clip-path="url(#clip0_98_2)">
<path d="M15 0L18.1294 1.62L21.6131 2.14875L23.1919 5.29875L25.6987 7.77375L25.125 11.25L25.6987 14.7262L23.1919 17.2013L21.6131 20.3512L18.1294 20.88L15 22.5L11.8706 20.88L8.38687 20.3512L6.80812 17.2013L4.30125 14.7262L4.875 11.25L4.30125 7.77375L6.80812 5.29875L8.38687 2.14875L11.8706 1.62L15 0Z" fill="#FFD700"/>
<path d="M7.5 22.1138V30L15 28.125L22.5 30V22.1138L18.7163 22.6875L15 24.6113L11.2838 22.6875L7.5 22.1138Z" fill="#FFD700"/>
</g>
<defs>
<clipPath id="clip0_98_2">
<rect width="30" height="30" fill="white"/>
</clipPath>
</defs>
</svg>
