<svg width="150" height="40" viewBox="0 0 150 40" fill="none" xmlns="http://www.w3.org/2000/svg">
<g filter="url(#filter0_i_165_15)">
<rect x="1.5" y="1.5" width="147" height="37" rx="6.5" fill="white" stroke="black" stroke-width="3"/>
<path d="M16.227 13.1212L20.2753 24.9678H20.4386L24.4869 13.1212H26.8591L21.6247 27.6667H19.0892L13.8548 13.1212H16.227ZM32.3971 27.8868C31.3223 27.8868 30.3966 27.6572 29.6201 27.1979C28.8483 26.7339 28.2517 26.0828 27.8303 25.2448C27.4136 24.402 27.2053 23.4148 27.2053 22.2831C27.2053 21.1657 27.4136 20.1809 27.8303 19.3286C28.2517 18.4763 28.8388 17.8111 29.5917 17.3328C30.3492 16.8546 31.2347 16.6155 32.2479 16.6155C32.8635 16.6155 33.46 16.7173 34.0377 16.9209C34.6153 17.1245 35.1338 17.4441 35.5931 17.8797C36.0524 18.3153 36.4146 18.8811 36.6797 19.5772C36.9449 20.2685 37.0775 21.1089 37.0775 22.0985V22.8513H28.4056V21.2604H34.9965C34.9965 20.7017 34.8829 20.2069 34.6556 19.776C34.4283 19.3404 34.1087 18.9971 33.6968 18.7462C33.2896 18.4953 32.8114 18.3698 32.2621 18.3698C31.6655 18.3698 31.1447 18.5166 30.6996 18.8101C30.2593 19.0989 29.9184 19.4777 29.6769 19.9465C29.4402 20.4105 29.3218 20.9148 29.3218 21.4593V22.7022C29.3218 23.4313 29.4496 24.0516 29.7053 24.563C29.9657 25.0743 30.3279 25.465 30.792 25.7348C31.256 26 31.7981 26.1326 32.4184 26.1326C32.8208 26.1326 33.1878 26.0757 33.5192 25.9621C33.8507 25.8437 34.1371 25.6686 34.3786 25.4365C34.6201 25.2045 34.8047 24.9181 34.9326 24.5772L36.9425 24.9394C36.7815 25.5312 36.4927 26.0497 36.076 26.4948C35.6641 26.9351 35.1456 27.2784 34.5206 27.5246C33.9004 27.7661 33.1925 27.8868 32.3971 27.8868ZM39.4336 27.6667V16.7576H41.4862V18.4905H41.5998C41.7987 17.9034 42.1491 17.4418 42.651 17.1056C43.1576 16.7647 43.7305 16.5942 44.3697 16.5942C44.5023 16.5942 44.6586 16.5989 44.8385 16.6084C45.0231 16.6179 45.1675 16.6297 45.2717 16.6439V18.6752C45.1865 18.6515 45.035 18.6255 44.8172 18.5971C44.5994 18.5639 44.3816 18.5473 44.1638 18.5473C43.6619 18.5473 43.2144 18.6539 42.8214 18.8669C42.4332 19.0753 42.1254 19.3665 41.8981 19.7405C41.6709 20.1098 41.5572 20.5312 41.5572 21.0047V27.6667H39.4336ZM52.4024 27.6667V16.7576H54.4407V18.5331H54.5757C54.803 17.9318 55.1746 17.4631 55.6907 17.1269C56.2068 16.786 56.8247 16.6155 57.5444 16.6155C58.2736 16.6155 58.8844 16.786 59.3768 17.1269C59.874 17.4678 60.2409 17.9365 60.4777 18.5331H60.5913C60.8517 17.9507 61.266 17.4867 61.8342 17.1411C62.4024 16.7907 63.0795 16.6155 63.8655 16.6155C64.855 16.6155 65.6623 16.9257 66.2873 17.5459C66.9171 18.1662 67.2319 19.1013 67.2319 20.3513V27.6667H65.1084V20.5502C65.1084 19.8115 64.9071 19.2765 64.5047 18.9451C64.1022 18.6136 63.6216 18.4479 63.0629 18.4479C62.3716 18.4479 61.8342 18.661 61.4507 19.0871C61.0672 19.5085 60.8754 20.0507 60.8754 20.7135V27.6667H58.7589V20.4152C58.7589 19.8234 58.5743 19.3475 58.205 18.9877C57.8356 18.6278 57.355 18.4479 56.7632 18.4479C56.3607 18.4479 55.989 18.5544 55.6481 18.7675C55.312 18.9758 55.0397 19.267 54.8314 19.6411C54.6278 20.0151 54.526 20.4484 54.526 20.9408V27.6667H52.4024ZM73.2529 27.9081C72.5616 27.9081 71.9366 27.7803 71.3779 27.5246C70.8192 27.2642 70.3765 26.8878 70.0498 26.3953C69.7278 25.9029 69.5668 25.2992 69.5668 24.5843C69.5668 23.9687 69.6852 23.4621 69.9219 23.0644C70.1587 22.6667 70.4783 22.3518 70.8807 22.1198C71.2832 21.8878 71.733 21.7126 72.2302 21.5942C72.7273 21.4758 73.234 21.3859 73.7501 21.3243C74.4035 21.2486 74.9338 21.187 75.341 21.1397C75.7482 21.0876 76.0441 21.0047 76.2287 20.8911C76.4134 20.7775 76.5057 20.5928 76.5057 20.3371V20.2874C76.5057 19.6671 76.3305 19.1865 75.9802 18.8456C75.6345 18.5047 75.1184 18.3343 74.4319 18.3343C73.7169 18.3343 73.1535 18.4929 72.7415 18.8101C72.3343 19.1226 72.0526 19.4706 71.8964 19.8542L69.9006 19.3996C70.1374 18.7367 70.483 18.2017 70.9376 17.7945C71.3968 17.3826 71.9248 17.0843 72.5214 16.8996C73.1179 16.7102 73.7453 16.6155 74.4035 16.6155C74.8391 16.6155 75.3007 16.6676 75.7884 16.7718C76.2808 16.8712 76.7401 17.0559 77.1662 17.3257C77.5971 17.5956 77.9499 17.9815 78.2245 18.4834C78.4991 18.9806 78.6364 19.6269 78.6364 20.4223V27.6667H76.5626V26.1752H76.4773C76.34 26.4498 76.134 26.7197 75.8594 26.9848C75.5848 27.25 75.2321 27.4702 74.8012 27.6453C74.3703 27.8205 73.8542 27.9081 73.2529 27.9081ZM73.7145 26.2036C74.3017 26.2036 74.8036 26.0876 75.2202 25.8556C75.6416 25.6236 75.9612 25.3205 76.179 24.9465C76.4016 24.5677 76.5128 24.1629 76.5128 23.732V22.3257C76.4371 22.4015 76.2903 22.4725 76.0725 22.5388C75.8594 22.6004 75.6156 22.6548 75.341 22.7022C75.0663 22.7448 74.7988 22.785 74.5384 22.8229C74.278 22.8561 74.0602 22.8845 73.885 22.9081C73.4731 22.9602 73.0966 23.0478 72.7557 23.1709C72.4196 23.294 72.1497 23.4716 71.9461 23.7036C71.7472 23.9309 71.6478 24.2339 71.6478 24.6127C71.6478 25.1382 71.8419 25.536 72.2302 25.8059C72.6184 26.071 73.1132 26.2036 73.7145 26.2036ZM73.6364 15.3016L75.2983 12.0275H77.5356L75.3339 15.3016H73.6364ZM89.6396 19.4209L87.7149 19.7618C87.6344 19.5156 87.5066 19.2812 87.3314 19.0587C87.1609 18.8362 86.9289 18.6539 86.6354 18.5118C86.3418 18.3698 85.9748 18.2988 85.5345 18.2988C84.9332 18.2988 84.4313 18.4337 84.0288 18.7036C83.6264 18.9687 83.4251 19.312 83.4251 19.7334C83.4251 20.098 83.5601 20.3916 83.83 20.6141C84.0998 20.8366 84.5354 21.0189 85.1368 21.161L86.8697 21.5587C87.8735 21.7907 88.6216 22.1482 89.114 22.6311C89.6065 23.1141 89.8527 23.7415 89.8527 24.5132C89.8527 25.1667 89.6633 25.749 89.2845 26.2604C88.9104 26.767 88.3872 27.1648 87.7149 27.4536C87.0473 27.7424 86.2731 27.8868 85.3925 27.8868C84.1709 27.8868 83.1742 27.6264 82.4024 27.1056C81.6306 26.58 81.1571 25.8343 80.9819 24.8684L83.0345 24.5559C83.1623 25.0909 83.4251 25.4957 83.8228 25.7703C84.2206 26.0402 84.739 26.1752 85.3782 26.1752C86.0743 26.1752 86.6306 26.0308 87.0473 25.7419C87.4639 25.4484 87.6723 25.0909 87.6723 24.6695C87.6723 24.3286 87.5444 24.0421 87.2888 23.8101C87.0378 23.5781 86.6519 23.4029 86.1311 23.2846L84.2845 22.8797C83.2665 22.6477 82.5137 22.2784 82.026 21.7718C81.543 21.2651 81.3015 20.6236 81.3015 19.8471C81.3015 19.2031 81.4815 18.6397 81.8413 18.1567C82.2012 17.6738 82.6983 17.2973 83.3328 17.0275C83.9673 16.7528 84.6941 16.6155 85.5132 16.6155C86.6922 16.6155 87.6202 16.8712 88.2973 17.3826C88.9744 17.8892 89.4218 18.5686 89.6396 19.4209Z" fill="black"/>
<path fill-rule="evenodd" clip-rule="evenodd" d="M121 30C121.332 30 121.649 29.8683 121.884 29.6339C122.118 29.3995 122.25 29.0815 122.25 28.75V14.2675L127.615 19.635C127.731 19.7512 127.869 19.8434 128.021 19.9063C128.173 19.9692 128.336 20.0016 128.5 20.0016C128.664 20.0016 128.827 19.9692 128.979 19.9063C129.131 19.8434 129.269 19.7512 129.385 19.635C129.501 19.5188 129.593 19.3808 129.656 19.229C129.719 19.0771 129.752 18.9144 129.752 18.75C129.752 18.5856 129.719 18.4229 129.656 18.271C129.593 18.1192 129.501 17.9812 129.385 17.865L121.885 10.365C121.769 10.2486 121.631 10.1562 121.479 10.0932C121.327 10.0302 121.164 9.99777 121 9.99777C120.836 9.99777 120.673 10.0302 120.521 10.0932C120.369 10.1562 120.231 10.2486 120.115 10.365L112.615 17.865C112.38 18.0997 112.248 18.4181 112.248 18.75C112.248 19.0819 112.38 19.4003 112.615 19.635C112.85 19.8697 113.168 20.0016 113.5 20.0016C113.832 20.0016 114.15 19.8697 114.385 19.635L119.75 14.2675V28.75C119.75 29.0815 119.882 29.3995 120.116 29.6339C120.351 29.8683 120.668 30 121 30Z" fill="black"/>
</g>
<defs>
<filter id="filter0_i_165_15" x="0" y="0" width="150" height="44" filterUnits="userSpaceOnUse" color-interpolation-filters="sRGB">
<feFlood flood-opacity="0" result="BackgroundImageFix"/>
<feBlend mode="normal" in="SourceGraphic" in2="BackgroundImageFix" result="shape"/>
<feColorMatrix in="SourceAlpha" type="matrix" values="0 0 0 0 0 0 0 0 0 0 0 0 0 0 0 0 0 0 127 0" result="hardAlpha"/>
<feOffset dy="4"/>
<feGaussianBlur stdDeviation="2"/>
<feComposite in2="hardAlpha" operator="arithmetic" k2="-1" k3="1"/>
<feColorMatrix type="matrix" values="0 0 0 0 0 0 0 0 0 0 0 0 0 0 0 0 0 0 0.25 0"/>
<feBlend mode="normal" in2="shape" result="effect1_innerShadow_165_15"/>
</filter>
</defs>
</svg>
