<svg width="151" height="40" viewBox="0 0 151 40" fill="none" xmlns="http://www.w3.org/2000/svg">
<g filter="url(#filter0_i_169_56)">
<rect x="1.5" y="1.5" width="147.943" height="37" rx="6.5" fill="#FF8A00" stroke="white" stroke-width="3"/>
<path d="M16.5544 13.1212L20.6027 24.9678H20.766L24.8143 13.1212H27.1865L21.9521 27.6666H19.4166L14.1822 13.1212H16.5544ZM32.7245 27.8868C31.6497 27.8868 30.724 27.6572 29.9475 27.1979C29.1757 26.7339 28.5791 26.0828 28.1577 25.2448C27.7411 24.4019 27.5327 23.4147 27.5327 22.2831C27.5327 21.1657 27.7411 20.1808 28.1577 19.3286C28.5791 18.4763 29.1662 17.811 29.9191 17.3328C30.6767 16.8546 31.5621 16.6155 32.5753 16.6155C33.1909 16.6155 33.7875 16.7173 34.3651 16.9209C34.9428 17.1245 35.4612 17.4441 35.9205 17.8797C36.3798 18.3153 36.742 18.8811 37.0072 19.5771C37.2723 20.2684 37.4049 21.1089 37.4049 22.0984V22.8513H28.733V21.2604H35.3239C35.3239 20.7017 35.2103 20.2069 34.983 19.776C34.7557 19.3404 34.4361 18.9971 34.0242 18.7462C33.617 18.4952 33.1388 18.3698 32.5895 18.3698C31.9929 18.3698 31.4721 18.5165 31.027 18.8101C30.5867 19.0989 30.2458 19.4777 30.0043 19.9465C29.7676 20.4105 29.6492 20.9147 29.6492 21.4592V22.7021C29.6492 23.4313 29.777 24.0516 30.0327 24.5629C30.2931 25.0743 30.6554 25.4649 31.1194 25.7348C31.5834 26 32.1255 26.1325 32.7458 26.1325C33.1483 26.1325 33.5152 26.0757 33.8466 25.9621C34.1781 25.8437 34.4645 25.6685 34.706 25.4365C34.9475 25.2045 35.1322 24.918 35.26 24.5771L37.2699 24.9394C37.109 25.5312 36.8201 26.0497 36.4035 26.4948C35.9915 26.9351 35.4731 27.2784 34.8481 27.5246C34.2278 27.7661 33.5199 27.8868 32.7245 27.8868ZM39.7611 27.6666V16.7575H41.8136V18.4905H41.9273C42.1261 17.9034 42.4765 17.4417 42.9784 17.1055C43.485 16.7646 44.0579 16.5942 44.6971 16.5942C44.8297 16.5942 44.986 16.5989 45.1659 16.6084C45.3505 16.6179 45.495 16.6297 45.5991 16.6439V18.6751C45.5139 18.6515 45.3624 18.6254 45.1446 18.597C44.9268 18.5639 44.709 18.5473 44.4912 18.5473C43.9893 18.5473 43.5418 18.6538 43.1488 18.8669C42.7606 19.0752 42.4528 19.3664 42.2255 19.7405C41.9983 20.1098 41.8846 20.5312 41.8846 21.0047V27.6666H39.7611ZM52.7298 27.6666V16.7575H54.7682V18.5331H54.9031C55.1304 17.9318 55.5021 17.463 56.0182 17.1269C56.5343 16.7859 57.1522 16.6155 57.8719 16.6155C58.601 16.6155 59.2118 16.7859 59.7042 17.1269C60.2014 17.4678 60.5684 17.9365 60.8051 18.5331H60.9187C61.1791 17.9507 61.5934 17.4867 62.1616 17.1411C62.7298 16.7907 63.4069 16.6155 64.1929 16.6155C65.1825 16.6155 65.9898 16.9256 66.6148 17.5459C67.2445 18.1662 67.5594 19.1013 67.5594 20.3513V27.6666H65.4358V20.5501C65.4358 19.8115 65.2345 19.2765 64.8321 18.945C64.4296 18.6136 63.949 18.4479 63.3903 18.4479C62.699 18.4479 62.1616 18.6609 61.7781 19.0871C61.3946 19.5085 61.2028 20.0506 61.2028 20.7135V27.6666H59.0863V20.4152C59.0863 19.8233 58.9017 19.3475 58.5324 18.9876C58.163 18.6278 57.6825 18.4479 57.0906 18.4479C56.6881 18.4479 56.3165 18.5544 55.9755 18.7675C55.6394 18.9758 55.3671 19.267 55.1588 19.6411C54.9552 20.0151 54.8534 20.4483 54.8534 20.9408V27.6666H52.7298ZM73.5803 27.9081C72.889 27.9081 72.264 27.7803 71.7053 27.5246C71.1466 27.2642 70.7039 26.8877 70.3772 26.3953C70.0552 25.9029 69.8942 25.2992 69.8942 24.5842C69.8942 23.9687 70.0126 23.4621 70.2493 23.0644C70.4861 22.6666 70.8057 22.3518 71.2081 22.1198C71.6106 21.8877 72.0604 21.7126 72.5576 21.5942C73.0547 21.4758 73.5614 21.3858 74.0775 21.3243C74.7309 21.2485 75.2612 21.187 75.6684 21.1396C76.0756 21.0876 76.3715 21.0047 76.5562 20.8911C76.7408 20.7774 76.8331 20.5928 76.8331 20.3371V20.2874C76.8331 19.6671 76.658 19.1865 76.3076 18.8456C75.9619 18.5047 75.4458 18.3342 74.7593 18.3342C74.0443 18.3342 73.4809 18.4929 73.0689 18.8101C72.6617 19.1226 72.38 19.4706 72.2238 19.8541L70.228 19.3996C70.4648 18.7367 70.8104 18.2017 71.265 17.7945C71.7242 17.3825 72.2522 17.0842 72.8488 16.8996C73.4454 16.7102 74.0727 16.6155 74.7309 16.6155C75.1665 16.6155 75.6281 16.6676 76.1158 16.7717C76.6082 16.8712 77.0675 17.0558 77.4937 17.3257C77.9245 17.5956 78.2773 17.9815 78.5519 18.4834C78.8265 18.9805 78.9638 19.6269 78.9638 20.4223V27.6666H76.89V26.1751H76.8047C76.6674 26.4498 76.4615 26.7197 76.1868 26.9848C75.9122 27.25 75.5595 27.4701 75.1286 27.6453C74.6977 27.8205 74.1816 27.9081 73.5803 27.9081ZM74.042 26.2036C74.6291 26.2036 75.131 26.0876 75.5476 25.8555C75.969 25.6235 76.2886 25.3205 76.5064 24.9465C76.729 24.5677 76.8403 24.1628 76.8403 23.732V22.3257C76.7645 22.4015 76.6177 22.4725 76.3999 22.5388C76.1868 22.6003 75.943 22.6548 75.6684 22.7021C75.3938 22.7448 75.1262 22.785 74.8658 22.8229C74.6054 22.856 74.3876 22.8844 74.2124 22.9081C73.8005 22.9602 73.4241 23.0478 73.0831 23.1709C72.747 23.294 72.4771 23.4716 72.2735 23.7036C72.0746 23.9308 71.9752 24.2339 71.9752 24.6126C71.9752 25.1382 72.1693 25.5359 72.5576 25.8058C72.9458 26.071 73.4406 26.2036 74.042 26.2036ZM73.9638 15.3016L75.6258 12.0274H77.863L75.6613 15.3016H73.9638ZM89.967 19.4209L88.0423 19.7618C87.9618 19.5156 87.834 19.2812 87.6588 19.0587C87.4883 18.8361 87.2563 18.6538 86.9628 18.5118C86.6692 18.3698 86.3023 18.2987 85.8619 18.2987C85.2606 18.2987 84.7587 18.4337 84.3562 18.7036C83.9538 18.9687 83.7525 19.312 83.7525 19.7334C83.7525 20.098 83.8875 20.3915 84.1574 20.6141C84.4273 20.8366 84.8629 21.0189 85.4642 21.1609L87.1971 21.5587C88.2009 21.7907 88.949 22.1482 89.4415 22.6311C89.9339 23.1141 90.1801 23.7414 90.1801 24.5132C90.1801 25.1666 89.9907 25.749 89.6119 26.2604C89.2379 26.767 88.7147 27.1647 88.0423 27.4536C87.3747 27.7424 86.6005 27.8868 85.7199 27.8868C84.4983 27.8868 83.5016 27.6264 82.7298 27.1055C81.958 26.58 81.4845 25.8342 81.3094 24.8683L83.3619 24.5558C83.4898 25.0909 83.7525 25.4957 84.1503 25.7703C84.548 26.0402 85.0665 26.1751 85.7057 26.1751C86.4017 26.1751 86.958 26.0307 87.3747 25.7419C87.7914 25.4483 87.9997 25.0909 87.9997 24.6695C87.9997 24.3286 87.8719 24.0421 87.6162 23.8101C87.3652 23.5781 86.9793 23.4029 86.4585 23.2845L84.6119 22.8797C83.5939 22.6477 82.8411 22.2784 82.3534 21.7717C81.8704 21.2651 81.629 20.6235 81.629 19.847C81.629 19.2031 81.8089 18.6396 82.1687 18.1567C82.5286 17.6737 83.0257 17.2973 83.6602 17.0274C84.2947 16.7528 85.0215 16.6155 85.8406 16.6155C87.0196 16.6155 87.9476 16.8712 88.6247 17.3825C89.3018 17.8892 89.7492 18.5686 89.967 19.4209Z" fill="white"/>
<path fill-rule="evenodd" clip-rule="evenodd" d="M121.761 30C122.095 30 122.415 29.8683 122.65 29.6339C122.886 29.3994 123.019 29.0815 123.019 28.75V14.2675L128.418 19.635C128.535 19.7512 128.673 19.8434 128.826 19.9063C128.979 19.9692 129.143 20.0016 129.308 20.0016C129.474 20.0016 129.637 19.9692 129.79 19.9063C129.943 19.8434 130.082 19.7512 130.199 19.635C130.316 19.5188 130.408 19.3808 130.472 19.2289C130.535 19.0771 130.568 18.9143 130.568 18.75C130.568 18.5856 130.535 18.4229 130.472 18.271C130.408 18.1192 130.316 17.9812 130.199 17.865L122.652 10.365C122.535 10.2486 122.396 10.1562 122.243 10.0932C122.09 10.0302 121.926 9.99774 121.761 9.99774C121.596 9.99774 121.432 10.0302 121.279 10.0932C121.126 10.1562 120.987 10.2486 120.87 10.365L113.323 17.865C113.087 18.0997 112.954 18.418 112.954 18.75C112.954 19.0819 113.087 19.4003 113.323 19.635C113.559 19.8697 113.88 20.0016 114.214 20.0016C114.548 20.0016 114.868 19.8697 115.104 19.635L120.503 14.2675V28.75C120.503 29.0815 120.636 29.3994 120.872 29.6339C121.107 29.8683 121.427 30 121.761 30Z" fill="white"/>
</g>
<defs>
<filter id="filter0_i_169_56" x="0" y="0" width="150.943" height="44" filterUnits="userSpaceOnUse" color-interpolation-filters="sRGB">
<feFlood flood-opacity="0" result="BackgroundImageFix"/>
<feBlend mode="normal" in="SourceGraphic" in2="BackgroundImageFix" result="shape"/>
<feColorMatrix in="SourceAlpha" type="matrix" values="0 0 0 0 0 0 0 0 0 0 0 0 0 0 0 0 0 0 127 0" result="hardAlpha"/>
<feOffset dy="4"/>
<feGaussianBlur stdDeviation="2"/>
<feComposite in2="hardAlpha" operator="arithmetic" k2="-1" k3="1"/>
<feColorMatrix type="matrix" values="0 0 0 0 0 0 0 0 0 0 0 0 0 0 0 0 0 0 0.25 0"/>
<feBlend mode="normal" in2="shape" result="effect1_innerShadow_169_56"/>
</filter>
</defs>
</svg>
