<svg width="151" height="39" viewBox="0 0 151 39" fill="none" xmlns="http://www.w3.org/2000/svg">
<g filter="url(#filter0_i_169_47)">
<rect x="1.5" y="1.5" width="147.943" height="35.7826" rx="6.5" fill="#1E1E1E" stroke="#FF8A00" stroke-width="3"/>
<path d="M16.5544 12.8574L20.6027 24.704H20.766L24.8143 12.8574H27.1865L21.9521 27.4028H19.4166L14.1822 12.8574H16.5544ZM32.7245 27.623C31.6497 27.623 30.724 27.3934 29.9475 26.9341C29.1757 26.4701 28.5791 25.819 28.1577 24.981C27.7411 24.1382 27.5327 23.1509 27.5327 22.0193C27.5327 20.9019 27.7411 19.917 28.1577 19.0648C28.5791 18.2125 29.1662 17.5472 29.9191 17.069C30.6767 16.5908 31.5621 16.3517 32.5753 16.3517C33.1909 16.3517 33.7875 16.4535 34.3651 16.6571C34.9428 16.8607 35.4612 17.1803 35.9205 17.6159C36.3798 18.0515 36.742 18.6173 37.0072 19.3133C37.2723 20.0046 37.4049 20.8451 37.4049 21.8347V22.5875H28.733V20.9966H35.3239C35.3239 20.4379 35.2103 19.9431 34.983 19.5122C34.7557 19.0766 34.4361 18.7333 34.0242 18.4824C33.617 18.2314 33.1388 18.106 32.5895 18.106C31.9929 18.106 31.4721 18.2527 31.027 18.5463C30.5867 18.8351 30.2458 19.2139 30.0043 19.6827C29.7676 20.1467 29.6492 20.6509 29.6492 21.1954V22.4383C29.6492 23.1675 29.777 23.7878 30.0327 24.2991C30.2931 24.8105 30.6554 25.2011 31.1194 25.471C31.5834 25.7362 32.1255 25.8687 32.7458 25.8687C33.1483 25.8687 33.5152 25.8119 33.8466 25.6983C34.1781 25.5799 34.4645 25.4047 34.706 25.1727C34.9475 24.9407 35.1322 24.6543 35.26 24.3133L37.2699 24.6756C37.109 25.2674 36.8201 25.7859 36.4035 26.231C35.9915 26.6713 35.4731 27.0146 34.8481 27.2608C34.2278 27.5023 33.5199 27.623 32.7245 27.623ZM39.7611 27.4028V16.4937H41.8136V18.2267H41.9273C42.1261 17.6396 42.4765 17.1779 42.9784 16.8418C43.485 16.5008 44.0579 16.3304 44.6971 16.3304C44.8297 16.3304 44.986 16.3351 45.1659 16.3446C45.3505 16.3541 45.495 16.3659 45.5991 16.3801V18.4114C45.5139 18.3877 45.3624 18.3616 45.1446 18.3332C44.9268 18.3001 44.709 18.2835 44.4912 18.2835C43.9893 18.2835 43.5418 18.39 43.1488 18.6031C42.7606 18.8114 42.4528 19.1026 42.2255 19.4767C41.9983 19.846 41.8846 20.2674 41.8846 20.7409V27.4028H39.7611ZM52.7298 27.4028V16.4937H54.7682V18.2693H54.9031C55.1304 17.668 55.5021 17.1992 56.0182 16.8631C56.5343 16.5222 57.1522 16.3517 57.8719 16.3517C58.601 16.3517 59.2118 16.5222 59.7042 16.8631C60.2014 17.204 60.5684 17.6727 60.8051 18.2693H60.9187C61.1791 17.6869 61.5934 17.2229 62.1616 16.8773C62.7298 16.5269 63.4069 16.3517 64.1929 16.3517C65.1825 16.3517 65.9898 16.6618 66.6148 17.2821C67.2445 17.9024 67.5594 18.8375 67.5594 20.0875V27.4028H65.4358V20.2864C65.4358 19.5477 65.2345 19.0127 64.8321 18.6812C64.4296 18.3498 63.949 18.1841 63.3903 18.1841C62.699 18.1841 62.1616 18.3972 61.7781 18.8233C61.3946 19.2447 61.2028 19.7868 61.2028 20.4497V27.4028H59.0863V20.1514C59.0863 19.5596 58.9017 19.0837 58.5324 18.7239C58.163 18.364 57.6825 18.1841 57.0906 18.1841C56.6881 18.1841 56.3165 18.2906 55.9755 18.5037C55.6394 18.712 55.3671 19.0032 55.1588 19.3773C54.9552 19.7513 54.8534 20.1846 54.8534 20.677V27.4028H52.7298ZM73.5803 27.6443C72.889 27.6443 72.264 27.5165 71.7053 27.2608C71.1466 27.0004 70.7039 26.6239 70.3772 26.1315C70.0552 25.6391 69.8942 25.0354 69.8942 24.3204C69.8942 23.7049 70.0126 23.1983 70.2493 22.8006C70.4861 22.4028 70.8057 22.088 71.2081 21.856C71.6106 21.6239 72.0604 21.4488 72.5576 21.3304C73.0547 21.212 73.5614 21.1221 74.0775 21.0605C74.7309 20.9847 75.2612 20.9232 75.6684 20.8758C76.0756 20.8238 76.3715 20.7409 76.5562 20.6273C76.7408 20.5136 76.8331 20.329 76.8331 20.0733V20.0236C76.8331 19.4033 76.658 18.9227 76.3076 18.5818C75.9619 18.2409 75.4458 18.0704 74.7593 18.0704C74.0443 18.0704 73.4809 18.2291 73.0689 18.5463C72.6617 18.8588 72.38 19.2068 72.2238 19.5903L70.228 19.1358C70.4648 18.4729 70.8104 17.9379 71.265 17.5307C71.7242 17.1187 72.2522 16.8204 72.8488 16.6358C73.4454 16.4464 74.0727 16.3517 74.7309 16.3517C75.1665 16.3517 75.6281 16.4038 76.1158 16.5079C76.6082 16.6074 77.0675 16.792 77.4937 17.0619C77.9245 17.3318 78.2773 17.7177 78.5519 18.2196C78.8265 18.7168 78.9638 19.3631 78.9638 20.1585V27.4028H76.89V25.9114H76.8047C76.6674 26.186 76.4615 26.4559 76.1868 26.721C75.9122 26.9862 75.5595 27.2063 75.1286 27.3815C74.6977 27.5567 74.1816 27.6443 73.5803 27.6443ZM74.042 25.9398C74.6291 25.9398 75.131 25.8238 75.5476 25.5918C75.969 25.3597 76.2886 25.0567 76.5064 24.6827C76.729 24.3039 76.8403 23.899 76.8403 23.4682V22.0619C76.7645 22.1377 76.6177 22.2087 76.3999 22.275C76.1868 22.3365 75.943 22.391 75.6684 22.4383C75.3938 22.481 75.1262 22.5212 74.8658 22.5591C74.6054 22.5922 74.3876 22.6206 74.2124 22.6443C73.8005 22.6964 73.4241 22.784 73.0831 22.9071C72.747 23.0302 72.4771 23.2078 72.2735 23.4398C72.0746 23.667 71.9752 23.9701 71.9752 24.3489C71.9752 24.8744 72.1693 25.2722 72.5576 25.542C72.9458 25.8072 73.4406 25.9398 74.042 25.9398ZM73.9638 15.0378L75.6258 11.7636H77.863L75.6613 15.0378H73.9638ZM89.967 19.1571L88.0423 19.498C87.9618 19.2518 87.834 19.0174 87.6588 18.7949C87.4883 18.5723 87.2563 18.39 86.9628 18.248C86.6692 18.106 86.3023 18.0349 85.8619 18.0349C85.2606 18.0349 84.7587 18.1699 84.3562 18.4398C83.9538 18.7049 83.7525 19.0482 83.7525 19.4696C83.7525 19.8342 83.8875 20.1277 84.1574 20.3503C84.4273 20.5728 84.8629 20.7551 85.4642 20.8972L87.1971 21.2949C88.2009 21.5269 88.949 21.8844 89.4415 22.3673C89.9339 22.8503 90.1801 23.4776 90.1801 24.2494C90.1801 24.9028 89.9907 25.4852 89.6119 25.9966C89.2379 26.5032 88.7147 26.9009 88.0423 27.1898C87.3747 27.4786 86.6005 27.623 85.7199 27.623C84.4983 27.623 83.5016 27.3626 82.7298 26.8418C81.958 26.3162 81.4845 25.5704 81.3094 24.6045L83.3619 24.292C83.4898 24.8271 83.7525 25.2319 84.1503 25.5065C84.548 25.7764 85.0665 25.9114 85.7057 25.9114C86.4017 25.9114 86.958 25.7669 87.3747 25.4781C87.7914 25.1846 87.9997 24.8271 87.9997 24.4057C87.9997 24.0648 87.8719 23.7783 87.6162 23.5463C87.3652 23.3143 86.9793 23.1391 86.4585 23.0207L84.6119 22.6159C83.5939 22.3839 82.8411 22.0146 82.3534 21.5079C81.8704 21.0013 81.629 20.3597 81.629 19.5832C81.629 18.9393 81.8089 18.3758 82.1687 17.8929C82.5286 17.4099 83.0257 17.0335 83.6602 16.7636C84.2947 16.489 85.0215 16.3517 85.8406 16.3517C87.0196 16.3517 87.9476 16.6074 88.6247 17.1187C89.3018 17.6254 89.7492 18.3048 89.967 19.1571Z" fill="#FF8A00"/>
<path fill-rule="evenodd" clip-rule="evenodd" d="M121.761 29.0869C122.095 29.0869 122.415 28.9593 122.65 28.732C122.886 28.5047 123.019 28.1964 123.019 27.875V13.8333L128.418 19.0374C128.535 19.1501 128.673 19.2395 128.826 19.3005C128.979 19.3614 129.143 19.3928 129.308 19.3928C129.474 19.3928 129.637 19.3614 129.79 19.3005C129.943 19.2395 130.082 19.1501 130.199 19.0374C130.316 18.9247 130.408 18.791 130.472 18.6437C130.535 18.4965 130.568 18.3387 130.568 18.1793C130.568 18.02 130.535 17.8622 130.472 17.715C130.408 17.5677 130.316 17.434 130.199 17.3213L122.652 10.0495C122.535 9.93667 122.396 9.84713 122.243 9.78603C122.09 9.72493 121.926 9.69348 121.761 9.69348C121.596 9.69348 121.432 9.72493 121.279 9.78603C121.126 9.84713 120.987 9.93667 120.87 10.0495L113.323 17.3213C113.087 17.5488 112.954 17.8575 112.954 18.1793C112.954 18.5012 113.087 18.8098 113.323 19.0374C113.559 19.265 113.88 19.3928 114.214 19.3928C114.548 19.3928 114.868 19.265 115.104 19.0374L120.503 13.8333V27.875C120.503 28.1964 120.636 28.5047 120.872 28.732C121.107 28.9593 121.427 29.0869 121.761 29.0869Z" fill="#FF8A00"/>
</g>
<defs>
<filter id="filter0_i_169_47" x="0" y="0" width="150.943" height="42.7826" filterUnits="userSpaceOnUse" color-interpolation-filters="sRGB">
<feFlood flood-opacity="0" result="BackgroundImageFix"/>
<feBlend mode="normal" in="SourceGraphic" in2="BackgroundImageFix" result="shape"/>
<feColorMatrix in="SourceAlpha" type="matrix" values="0 0 0 0 0 0 0 0 0 0 0 0 0 0 0 0 0 0 127 0" result="hardAlpha"/>
<feOffset dy="4"/>
<feGaussianBlur stdDeviation="2"/>
<feComposite in2="hardAlpha" operator="arithmetic" k2="-1" k3="1"/>
<feColorMatrix type="matrix" values="0 0 0 0 0 0 0 0 0 0 0 0 0 0 0 0 0 0 0.25 0"/>
<feBlend mode="normal" in2="shape" result="effect1_innerShadow_169_47"/>
</filter>
</defs>
</svg>
