<svg width="20" height="30" viewBox="0 0 20 30" fill="none" xmlns="http://www.w3.org/2000/svg">
<g clip-path="url(#clip0_124_2)">
<path d="M0 20.9593C0.356112 24.5314 3.64052 27.0664 8.64052 27.3943V30H11.1501V27.3943C16.6121 27.0107 20 24.3129 20 20.3229C20 16.9157 17.7214 14.9443 12.8874 13.8343L11.1501 13.4336V5.28643C13.8499 5.52214 15.6713 6.81643 16.1309 8.74929H19.6679C19.2685 5.32071 15.9625 2.86071 11.1501 2.58857V0H8.64052V2.64214C3.97498 3.135 0.772377 5.79643 0.772377 9.405C0.772377 12.5207 3.09673 14.7257 7.17517 15.6557L8.64293 16.0029V24.6407C5.87825 24.2764 3.97498 22.9264 3.5154 20.9593H0ZM8.15929 12.7393C5.64966 12.1757 4.30943 10.9714 4.30943 9.27643C4.30943 7.25357 6.00337 5.76 8.64052 5.35929V12.8486L8.15929 12.7393ZM11.9875 16.7507C15.0842 17.4429 16.4437 18.5914 16.4437 20.5414C16.4437 22.8921 14.4562 24.4586 11.1501 24.6964V16.5643L11.9875 16.7486V16.7507Z" fill="#FFD700"/>
</g>
<defs>
<clipPath id="clip0_124_2">
<rect width="20" height="30" fill="white"/>
</clipPath>
</defs>
</svg>
