<svg width="25" height="30" viewBox="0 0 25 30" fill="none" xmlns="http://www.w3.org/2000/svg">
<path d="M19.4821 0.128321C19.6601 0.234699 19.7978 0.400162 19.8727 0.597677C19.9477 0.795193 19.9555 1.01309 19.8948 1.21576L16.6204 12.1876H22.662C22.8396 12.1876 23.0132 12.2411 23.1616 12.3417C23.31 12.4422 23.4266 12.5854 23.497 12.7535C23.5673 12.9216 23.5884 13.1072 23.5577 13.2875C23.5269 13.4679 23.4456 13.635 23.3238 13.7682L8.77888 29.7048C8.63815 29.8591 8.45087 29.9597 8.24758 29.9902C8.04429 30.0207 7.83697 29.9793 7.65941 29.8728C7.48186 29.7662 7.34453 29.6008 7.26983 29.4035C7.19512 29.2061 7.18744 28.9885 7.24803 28.7861L10.5225 17.8123H4.48085C4.30331 17.8124 4.12962 17.7588 3.98125 17.6583C3.83287 17.5577 3.7163 17.4146 3.64591 17.2465C3.57553 17.0784 3.55442 16.8927 3.58519 16.7124C3.61596 16.5321 3.69726 16.365 3.81906 16.2318L18.364 0.295186C18.5045 0.141069 18.6915 0.0405171 18.8945 0.00988123C19.0975 -0.0207546 19.3046 0.0203269 19.4821 0.126446V0.128321Z" fill="#FFD700"/>
</svg>
