<svg width="24" height="19" viewBox="0 0 24 19" fill="none" xmlns="http://www.w3.org/2000/svg">
<path fill-rule="evenodd" clip-rule="evenodd" d="M0 9.5C0 9.14013 0.158018 8.795 0.439291 8.54053C0.720564 8.28606 1.10205 8.1431 1.49983 8.1431H18.8769L12.4366 2.3193C12.155 2.06451 11.9968 1.71894 11.9968 1.35861C11.9968 0.998286 12.155 0.652718 12.4366 0.397929C12.7182 0.143139 13.1002 0 13.4985 0C13.8968 0 14.2787 0.143139 14.5604 0.397929L23.5594 8.53932C23.699 8.66536 23.8099 8.8151 23.8855 8.97995C23.9611 9.1448 24 9.32152 24 9.5C24 9.67848 23.9611 9.8552 23.8855 10.0201C23.8099 10.1849 23.699 10.3346 23.5594 10.4607L14.5604 18.6021C14.2787 18.8569 13.8968 19 13.4985 19C13.1002 19 12.7182 18.8569 12.4366 18.6021C12.155 18.3473 11.9968 18.0017 11.9968 17.6414C11.9968 17.2811 12.155 16.9355 12.4366 16.6807L18.8769 10.8569H1.49983C1.10205 10.8569 0.720564 10.7139 0.439291 10.4595C0.158018 10.205 0 9.85987 0 9.5Z" fill="#1E1E1E"/>
</svg>
