<svg width="33" height="33" viewBox="0 0 33 33" fill="none" xmlns="http://www.w3.org/2000/svg">
<g clip-path="url(#clip0_147_2)">
<path d="M28.0521 4.79748C26.5392 3.27056 24.7375 2.06001 22.7521 1.23637C20.7666 0.412738 18.6371 -0.00751631 16.4876 0.000101744C7.48069 0.000101744 0.14025 7.33848 0.132 16.3475C0.132 19.2329 0.886875 22.04 2.31206 24.5253L0 33.0001L8.67075 30.7272C11.0694 32.0326 13.7567 32.7168 16.4876 32.7175H16.4959C25.5049 32.7175 32.8433 25.3792 32.8515 16.3619C32.8536 14.2129 32.4304 12.0847 31.6063 10.0999C30.7822 8.11515 29.5757 6.31307 28.0521 4.79748ZM16.4876 29.9497C14.0518 29.9505 11.6608 29.295 9.56588 28.0522L9.07087 27.7552L3.927 29.104L5.30062 24.086L4.97888 23.5683C3.61723 21.4033 2.89708 18.8968 2.90194 16.3392C2.90194 8.8606 9.00075 2.75973 16.4959 2.75973C18.2815 2.75652 20.05 3.10679 21.6996 3.79034C23.3492 4.47389 24.8471 5.47719 26.1071 6.74241C27.3715 8.0027 28.3738 9.50085 29.0563 11.1505C29.7388 12.8001 30.088 14.5685 30.0836 16.3537C30.0754 23.8591 23.9766 29.9497 16.4876 29.9497ZM23.9436 19.7733C23.5373 19.5691 21.5304 18.5812 21.153 18.4409C20.7776 18.3069 20.5033 18.2367 20.2352 18.6451C19.9609 19.0514 19.1771 19.9775 18.942 20.2435C18.7069 20.5179 18.4635 20.5488 18.0551 20.3467C17.6488 20.1404 16.3309 19.7114 14.7716 18.3151C13.5548 17.2323 12.7401 15.8917 12.4967 15.4854C12.2616 15.077 12.474 14.8584 12.6782 14.6542C12.8576 14.4727 13.0845 14.1757 13.2887 13.9405C13.4949 13.7054 13.563 13.5322 13.6971 13.2599C13.8311 12.9835 13.7672 12.7484 13.6661 12.5442C13.563 12.34 12.7483 10.325 12.4039 9.51235C12.0739 8.71004 11.7377 8.82141 11.4861 8.8111C11.2509 8.79666 10.9766 8.79666 10.7023 8.79666C10.4952 8.80181 10.2913 8.84972 10.1036 8.93739C9.9158 9.02506 9.74819 9.15059 9.61125 9.3061C9.23587 9.71448 8.18606 10.7024 8.18606 12.7175C8.18606 14.7325 9.65044 16.6692 9.85669 16.9435C10.0588 17.2179 12.7318 21.3408 16.8341 23.1145C17.8035 23.5374 18.5666 23.7869 19.1627 23.9767C20.1424 24.2902 21.0272 24.2427 21.7326 24.1417C22.5163 24.022 24.1478 23.1517 24.4922 22.1967C24.8304 21.2397 24.8304 20.423 24.7273 20.2518C24.6263 20.0785 24.3519 19.9775 23.9436 19.7733Z" fill="black"/>
</g>
<defs>
<clipPath id="clip0_147_2">
<rect width="33" height="33" fill="white"/>
</clipPath>
</defs>
</svg>
